<svg width="24" height="24" viewBox="0 0 24 24" fill="none" xmlns="http://www.w3.org/2000/svg">
<path d="M23.7666 9.64978H22.8V9.59998H12V14.4H18.7818C17.7924 17.1942 15.1338 19.2 12 19.2C8.02378 19.2 4.79999 15.9762 4.79999 12C4.79999 8.02378 8.02378 4.79999 12 4.79999C13.8354 4.79999 15.5052 5.49239 16.7766 6.62339L20.1708 3.22919C18.0276 1.2318 15.1608 0 12 0C5.37299 0 0 5.37299 0 12C0 18.627 5.37299 24 12 24C18.627 24 24 18.627 24 12C24 11.1954 23.9172 10.41 23.7666 9.64978Z" fill="#FFC107"/>
</svg>
