<svg width="64" height="57" viewBox="0 0 64 57" fill="none" xmlns="http://www.w3.org/2000/svg">
<path d="M57.1429 0H50.2857V9.07631C50.2857 10.3295 49.2624 11.3454 48 11.3454C46.7376 11.3454 45.7142 10.3295 45.7142 9.07631V0H18.2857V9.07631C18.2857 10.3295 17.2623 11.3454 15.9999 11.3454C14.7375 11.3454 13.7141 10.3295 13.7141 9.07631V0H6.85714C3.07004 0 0 3.04769 0 6.8072V49.9195C0 53.679 3.07004 56.7267 6.85714 56.7267H57.1429C60.93 56.7267 64 53.679 64 49.9195V6.8072C64 3.04769 60.93 0 57.1429 0ZM59.4285 49.9195C59.4285 51.1727 58.4052 52.1886 57.1427 52.1886H6.85714C5.59473 52.1886 4.57138 51.1727 4.57138 49.9195V20.4216H59.4285V49.9195Z" fill="white"/>
</svg>
