<svg width="14" height="13" viewBox="0 0 14 13" fill="none" xmlns="http://www.w3.org/2000/svg">
<path d="M1.1543 0.690728L3.22185 2.75827C1.91499 3.59972 0.846907 4.76359 0.12053 6.13774L0 6.35562L0.12053 6.57814C1.68278 9.46621 4.42251 11.2139 7.45429 11.2139C8.63764 11.2137 9.80562 10.9458 10.8708 10.4304L13.1887 12.7483L14 12.053L1.94702 0L1.1543 0.690728ZM5.67416 5.21059L8.75694 8.29336C8.40862 8.50897 8.00764 8.62445 7.598 8.62714C7.30035 8.62714 7.00564 8.56829 6.73083 8.45397C6.45601 8.33964 6.20651 8.1721 5.99669 7.96099C5.78687 7.74988 5.62087 7.49936 5.50823 7.22384C5.3956 6.94833 5.33855 6.65326 5.34039 6.35562C5.34561 5.95072 5.461 5.55488 5.67416 5.21059ZM5.00198 4.5384C4.56827 5.15005 4.36499 5.89543 4.42813 6.64257C4.49126 7.38971 4.81674 8.09041 5.34693 8.6206C5.87712 9.15079 6.57782 9.47627 7.32496 9.5394C8.0721 9.60254 8.81748 9.39925 9.42912 8.96555L10.1708 9.70727C9.3122 10.0743 8.38809 10.2635 7.45429 10.2636C4.84436 10.2636 2.47086 8.80793 1.05695 6.35562C1.73549 5.15413 2.71272 4.14817 3.89403 3.43509L5.00198 4.5384Z" fill="#C7D2D6"/>
</svg>
